<svg width="102" height="25" viewBox="0 0 102 25" fill="none" xmlns="http://www.w3.org/2000/svg">
<path d="M9.76026e-07 -1.37091e-05V24.675H14.525V19.425H6.86V-1.37091e-05H9.76026e-07ZM36.6524 14.84C36.6524 8.60999 32.2074 4.79499 26.3624 4.79499C20.5174 4.79499 16.0724 8.60999 16.0724 14.84C16.0724 21.105 20.4824 24.92 26.3274 24.92C32.1724 24.92 36.6524 21.105 36.6524 14.84ZM23.0724 14.84C23.0724 12.04 24.6124 10.745 26.3624 10.745C28.1124 10.745 29.6874 12.04 29.6874 14.84C29.6874 17.675 28.0774 18.97 26.3274 18.97C24.5424 18.97 23.0724 17.675 23.0724 14.84ZM38.3234 14.84C38.3234 21.105 42.4184 24.92 48.2634 24.92C53.2334 24.92 56.8734 22.015 57.8534 17.15H50.5734C50.1884 18.375 49.4184 19.075 48.1234 19.075C46.4434 19.075 45.3234 17.675 45.3234 14.84C45.3234 12.04 46.4434 10.64 48.1234 10.64C49.4184 10.64 50.1884 11.375 50.5734 12.565H57.8534C56.8734 7.62999 53.2334 4.79499 48.2634 4.79499C42.4184 4.79499 38.3234 8.60999 38.3234 14.84ZM80.7931 5.03999H73.8981V15.575C73.8981 17.85 72.6381 19.18 70.6431 19.18C68.6831 19.18 67.3881 17.85 67.3881 15.575V5.03999H60.5631V16.45C60.5631 21.63 63.3981 24.85 67.9481 24.85C70.7131 24.85 72.7781 23.555 73.8981 21.875V24.675H80.7931V5.03999ZM101.217 18.9C101.182 11.445 90.7173 13.685 90.7173 10.885C90.7173 10.15 91.3123 9.69499 92.4323 9.69499C93.9023 9.69499 94.7773 10.43 94.9873 11.655H101.182C100.727 7.76999 97.9273 4.79499 92.5723 4.79499C87.2523 4.79499 84.4173 7.62999 84.4173 11.06C84.4173 18.27 94.8473 15.925 94.8473 18.795C94.8473 19.495 94.1823 20.055 93.0273 20.055C91.5923 20.055 90.5073 19.355 90.3323 18.06H83.6823C83.9623 21.98 87.6023 24.92 93.0623 24.92C98.1373 24.92 101.217 22.33 101.217 18.9Z" fill="#58A9A5"/>
</svg>
